<?xml version="1.0" standalone="no"?>
<!DOCTYPE svg PUBLIC "-//W3C//DTD SVG 20010904//EN"
 "http://www.w3.org/TR/2001/REC-SVG-20010904/DTD/svg10.dtd">
<svg version="1.0" xmlns="http://www.w3.org/2000/svg"
 width="300.000000pt" height="300.000000pt" viewBox="0 0 300.000000 300.000000"
 preserveAspectRatio="xMidYMid meet">
<metadata>
Created by potrace 1.11, written by Peter Selinger 2001-2013
</metadata>
<g transform="translate(0.000000,300.000000) scale(0.100000,-0.100000)"
fill="#000000" stroke="none">
<path d="M0 1500 l0 -1500 1500 0 1500 0 0 1500 0 1500 -1500 0 -1500 0 0
-1500z m1933 871 c117 -41 262 -170 331 -294 19 -34 77 -183 130 -332 52 -148
160 -457 241 -685 l145 -415 -18 -25 c-13 -17 -29 -25 -48 -25 -32 0 10 -111
-370 970 -70 198 -147 400 -172 449 -60 118 -134 194 -236 242 -70 33 -83 36
-163 36 -127 -1 -186 -25 -280 -116 l-74 -71 21 -54 c12 -29 25 -99 31 -155
14 -142 40 -1239 30 -1249 -5 -5 -26 -7 -47 -5 l-39 3 -7 95 c-3 52 -11 257
-18 455 -21 652 -27 743 -49 815 -26 82 -109 188 -173 218 -104 50 -237 48
-341 -4 -93 -48 -197 -178 -237 -300 -46 -138 -49 -187 -50 -770 0 -414 -3
-553 -12 -562 -15 -15 -53 -16 -79 -2 -18 10 -19 27 -19 548 0 549 5 639 40
778 81 315 329 501 607 455 84 -15 155 -53 231 -127 31 -30 57 -54 59 -54 2 0
31 29 66 64 62 64 109 93 202 127 67 25 215 20 298 -10z"/>
</g>
</svg>
